<svg width="186" height="70" viewBox="0 0 186 70" fill="none" xmlns="http://www.w3.org/2000/svg">
<circle cx="35.5" cy="36.5" r="32.5" stroke="#F88989" stroke-width="2"/>
<circle cx="34.5" cy="34.5" r="33.5" stroke="#565252" stroke-width="2"/>
<path d="M27.498 41H24.5293L24.5488 39.4668H27.498C28.5137 39.4668 29.36 39.2552 30.0371 38.832C30.7142 38.4023 31.222 37.8034 31.5605 37.0352C31.9056 36.2604 32.0781 35.3555 32.0781 34.3203V33.4512C32.0781 32.6374 31.9805 31.9147 31.7852 31.2832C31.5898 30.6452 31.3034 30.1081 30.9258 29.6719C30.5482 29.2292 30.0859 28.8939 29.5391 28.666C28.9987 28.4382 28.377 28.3242 27.6738 28.3242H24.4707V26.7812H27.6738C28.6048 26.7812 29.4544 26.9375 30.2227 27.25C30.9909 27.556 31.6517 28.002 32.2051 28.5879C32.765 29.1673 33.1947 29.8704 33.4941 30.6973C33.7936 31.5176 33.9434 32.4421 33.9434 33.4707V34.3203C33.9434 35.349 33.7936 36.2767 33.4941 37.1035C33.1947 37.9238 32.7617 38.6237 32.1953 39.2031C31.6354 39.7826 30.9583 40.2285 30.1641 40.541C29.3763 40.847 28.4876 41 27.498 41ZM25.5352 26.7812V41H23.6504V26.7812H25.5352ZM44.3535 37.4062C44.3535 37.0742 44.3014 36.7812 44.1973 36.5273C44.0996 36.2669 43.9238 36.0326 43.6699 35.8242C43.4225 35.6159 43.0775 35.4173 42.6348 35.2285C42.1986 35.0397 41.6452 34.8477 40.9746 34.6523C40.2715 34.444 39.6367 34.2129 39.0703 33.959C38.5039 33.6986 38.0189 33.4023 37.6152 33.0703C37.2116 32.7383 36.9023 32.3574 36.6875 31.9277C36.4727 31.498 36.3652 31.0065 36.3652 30.4531C36.3652 29.8997 36.4792 29.3887 36.707 28.9199C36.9349 28.4512 37.2604 28.0443 37.6836 27.6992C38.1133 27.3477 38.6243 27.0742 39.2168 26.8789C39.8092 26.6836 40.4701 26.5859 41.1992 26.5859C42.2669 26.5859 43.1719 26.791 43.9141 27.2012C44.6628 27.6048 45.2324 28.1354 45.623 28.793C46.0137 29.444 46.209 30.1406 46.209 30.8828H44.334C44.334 30.349 44.2201 29.877 43.9922 29.4668C43.7643 29.0501 43.4193 28.7246 42.957 28.4902C42.4948 28.2493 41.9089 28.1289 41.1992 28.1289C40.5286 28.1289 39.9753 28.2298 39.5391 28.4316C39.1029 28.6335 38.7773 28.9069 38.5625 29.252C38.3542 29.597 38.25 29.9909 38.25 30.4336C38.25 30.7331 38.3118 31.0065 38.4355 31.2539C38.5658 31.4948 38.7643 31.7194 39.0312 31.9277C39.3047 32.1361 39.6497 32.3281 40.0664 32.5039C40.4896 32.6797 40.9941 32.849 41.5801 33.0117C42.3874 33.2396 43.084 33.4935 43.6699 33.7734C44.2559 34.0534 44.7376 34.3691 45.1152 34.7207C45.4993 35.0658 45.7826 35.4596 45.9648 35.9023C46.1536 36.3385 46.248 36.8333 46.248 37.3867C46.248 37.9661 46.1309 38.4902 45.8965 38.959C45.6621 39.4277 45.3268 39.8281 44.8906 40.1602C44.4544 40.4922 43.9303 40.7493 43.3184 40.9316C42.7129 41.1074 42.0358 41.1953 41.2871 41.1953C40.6296 41.1953 39.9818 41.1042 39.3438 40.9219C38.7122 40.7396 38.1361 40.4661 37.6152 40.1016C37.1009 39.737 36.6875 39.2878 36.375 38.7539C36.069 38.2135 35.916 37.5885 35.916 36.8789H37.791C37.791 37.3672 37.8854 37.7871 38.0742 38.1387C38.263 38.4837 38.5202 38.7702 38.8457 38.998C39.1777 39.2259 39.5521 39.3952 39.9688 39.5059C40.3919 39.61 40.8314 39.6621 41.2871 39.6621C41.9447 39.6621 42.5013 39.571 42.957 39.3887C43.4128 39.2064 43.7578 38.946 43.9922 38.6074C44.2331 38.2689 44.3535 37.8685 44.3535 37.4062Z" fill="#565252"/>
<path d="M24.5293 41L24.2793 40.9968L24.2761 41.25H24.5293V41ZM24.5488 39.4668V39.2168H24.302L24.2988 39.4636L24.5488 39.4668ZM30.0371 38.832L30.1696 39.044L30.1711 39.0431L30.0371 38.832ZM31.5605 37.0352L31.3322 36.9334L31.3318 36.9343L31.5605 37.0352ZM31.7852 31.2832L31.5461 31.3564L31.5463 31.3571L31.7852 31.2832ZM30.9258 29.6719L30.7356 29.8341L30.7368 29.8355L30.9258 29.6719ZM29.5391 28.666L29.4419 28.8964L29.4429 28.8968L29.5391 28.666ZM24.4707 28.3242H24.2207V28.5742H24.4707V28.3242ZM24.4707 26.7812V26.5312H24.2207V26.7812H24.4707ZM30.2227 27.25L30.1285 27.4816L30.1301 27.4823L30.2227 27.25ZM32.2051 28.5879L32.0233 28.7596L32.0253 28.7616L32.2051 28.5879ZM33.4941 30.6973L33.2591 30.7824L33.2593 30.783L33.4941 30.6973ZM33.4941 37.1035L33.729 37.1893L33.7292 37.1887L33.4941 37.1035ZM32.1953 39.2031L32.0165 39.0284L32.0155 39.0294L32.1953 39.2031ZM30.1641 40.541L30.2546 40.7741L30.2556 40.7737L30.1641 40.541ZM25.5352 26.7812H25.7852V26.5312H25.5352V26.7812ZM25.5352 41V41.25H25.7852V41H25.5352ZM23.6504 41H23.4004V41.25H23.6504V41ZM23.6504 26.7812V26.5312H23.4004V26.7812H23.6504ZM27.498 40.75H24.5293V41.25H27.498V40.75ZM24.7793 41.0032L24.7988 39.47L24.2988 39.4636L24.2793 40.9968L24.7793 41.0032ZM24.5488 39.7168H27.498V39.2168H24.5488V39.7168ZM27.498 39.7168C28.5479 39.7168 29.4433 39.498 30.1696 39.044L29.9046 38.62C29.2767 39.0124 28.4794 39.2168 27.498 39.2168V39.7168ZM30.1711 39.0431C30.892 38.5856 31.4318 37.9473 31.7893 37.136L31.3318 36.9343C31.0122 37.6595 30.5364 38.2191 29.9032 38.6209L30.1711 39.0431ZM31.7889 37.1369C32.151 36.3239 32.3281 35.383 32.3281 34.3203H31.8281C31.8281 35.328 31.6602 36.197 31.3322 36.9334L31.7889 37.1369ZM32.3281 34.3203V33.4512H31.8281V34.3203H32.3281ZM32.3281 33.4512C32.3281 32.6179 32.2282 31.8696 32.024 31.2093L31.5463 31.3571C31.7328 31.9599 31.8281 32.6569 31.8281 33.4512H32.3281ZM32.0242 31.21C31.8203 30.5439 31.5185 29.9746 31.1148 29.5082L30.7368 29.8355C31.0883 30.2416 31.3594 30.7465 31.5461 31.3564L32.0242 31.21ZM31.116 29.5096C30.7124 29.0364 30.2177 28.678 29.6352 28.4352L29.4429 28.8968C29.9542 29.1098 30.384 29.4219 30.7356 29.8341L31.116 29.5096ZM29.6362 28.4357C29.0596 28.1925 28.4038 28.0742 27.6738 28.0742V28.5742C28.3501 28.5742 28.9378 28.6838 29.4419 28.8964L29.6362 28.4357ZM27.6738 28.0742H24.4707V28.5742H27.6738V28.0742ZM24.7207 28.3242V26.7812H24.2207V28.3242H24.7207ZM24.4707 27.0312H27.6738V26.5312H24.4707V27.0312ZM27.6738 27.0312C28.5765 27.0312 29.3936 27.1826 30.1285 27.4816L30.3169 27.0184C29.5153 26.6924 28.6332 26.5312 27.6738 26.5312V27.0312ZM30.1301 27.4823C30.8655 27.7751 31.4956 28.2008 32.0233 28.7595L32.3868 28.4162C31.8078 27.8031 31.1163 27.3368 30.3152 27.0177L30.1301 27.4823ZM32.0253 28.7616C32.5586 29.3135 32.9705 29.9856 33.2591 30.7824L33.7292 30.6121C33.4188 29.7553 32.9714 29.0211 32.3849 28.4142L32.0253 28.7616ZM33.2593 30.783C33.5471 31.5714 33.6934 32.4662 33.6934 33.4707H34.1934C34.1934 32.4179 34.0401 31.4637 33.729 30.6115L33.2593 30.783ZM33.6934 33.4707V34.3203H34.1934V33.4707H33.6934ZM33.6934 34.3203C33.6934 35.3248 33.5472 36.223 33.2591 37.0184L33.7292 37.1887C34.0401 36.3303 34.1934 35.3732 34.1934 34.3203H33.6934ZM33.2593 37.0178C32.971 37.8074 32.5563 38.4762 32.0165 39.0284L32.3741 39.3779C32.9672 38.7712 33.4183 38.0403 33.729 37.1893L33.2593 37.0178ZM32.0155 39.0294C31.482 39.5816 30.8355 40.0082 30.0725 40.3084L30.2556 40.7737C31.0811 40.4489 31.7889 39.9835 32.3751 39.3768L32.0155 39.0294ZM30.0735 40.308C29.3191 40.601 28.4619 40.75 27.498 40.75V41.25C28.5134 41.25 29.4335 41.093 30.2546 40.7741L30.0735 40.308ZM25.2852 26.7812V41H25.7852V26.7812H25.2852ZM25.5352 40.75H23.6504V41.25H25.5352V40.75ZM23.9004 41V26.7812H23.4004V41H23.9004ZM23.6504 27.0312H25.5352V26.5312H23.6504V27.0312ZM44.1973 36.5273L43.9631 36.6152L43.966 36.6222L44.1973 36.5273ZM43.6699 35.8242L43.5089 36.0155L43.5113 36.0175L43.6699 35.8242ZM42.6348 35.2285L42.5355 35.4579L42.5367 35.4585L42.6348 35.2285ZM40.9746 34.6523L40.9036 34.892L40.9047 34.8924L40.9746 34.6523ZM39.0703 33.959L38.9659 34.1861L38.968 34.1871L39.0703 33.959ZM37.6836 27.6992L37.8416 27.893L37.8419 27.8927L37.6836 27.6992ZM43.9141 27.2012L43.7931 27.42L43.7954 27.4212L43.9141 27.2012ZM45.623 28.793L45.4081 28.9207L45.4087 28.9216L45.623 28.793ZM46.209 30.8828V31.1328H46.459V30.8828H46.209ZM44.334 30.8828H44.084V31.1328H44.334V30.8828ZM43.9922 29.4668L43.7728 29.5868L43.7736 29.5882L43.9922 29.4668ZM42.957 28.4902L42.8415 28.7119L42.844 28.7132L42.957 28.4902ZM38.5625 29.252L38.3503 29.1198L38.3485 29.1227L38.5625 29.252ZM38.4355 31.2539L38.2118 31.3658L38.2156 31.3728L38.4355 31.2539ZM39.0312 31.9277L38.8774 32.1248L38.8797 32.1266L39.0312 31.9277ZM40.0664 32.5039L39.9692 32.7343L39.9705 32.7348L40.0664 32.5039ZM41.5801 33.0117L41.648 32.7711L41.647 32.7708L41.5801 33.0117ZM45.1152 34.7207L44.9449 34.9037L44.9482 34.9067L45.1152 34.7207ZM45.9648 35.9023L45.7336 35.9975L45.7354 36.0016L45.9648 35.9023ZM44.8906 40.1602L44.7392 39.9612L44.8906 40.1602ZM43.3184 40.9316L43.3881 41.1717L43.3897 41.1712L43.3184 40.9316ZM39.3438 40.9219L39.2744 41.1621L39.2751 41.1623L39.3438 40.9219ZM37.6152 40.1016L37.4707 40.3055L37.4719 40.3064L37.6152 40.1016ZM36.375 38.7539L36.1574 38.8771L36.1592 38.8802L36.375 38.7539ZM35.916 36.8789V36.6289H35.666V36.8789H35.916ZM37.791 36.8789H38.041V36.6289H37.791V36.8789ZM38.0742 38.1387L37.854 38.257L37.8549 38.2587L38.0742 38.1387ZM38.8457 38.998L38.7023 39.2029L38.7042 39.2042L38.8457 38.998ZM39.9688 39.5059L39.9046 39.7475L39.909 39.7486L39.9688 39.5059ZM43.9922 38.6074L43.7885 38.4625L43.7866 38.4651L43.9922 38.6074ZM44.6035 37.4062C44.6035 37.0483 44.5474 36.7221 44.4286 36.4325L43.966 36.6222C44.0555 36.8404 44.1035 37.1001 44.1035 37.4062H44.6035ZM44.4313 36.4396C44.3157 36.1311 44.1102 35.8621 43.8285 35.6309L43.5113 36.0175C43.7374 36.203 43.8836 36.4028 43.9632 36.6151L44.4313 36.4396ZM43.831 35.633C43.5578 35.403 43.1884 35.1928 42.7328 34.9986L42.5367 35.4585C42.9666 35.6418 43.2873 35.8288 43.5089 36.0154L43.831 35.633ZM42.7341 34.9991C42.285 34.8047 41.7209 34.6093 41.0445 34.4123L40.9047 34.8924C41.5694 35.086 42.1121 35.2747 42.5355 35.4579L42.7341 34.9991ZM41.0456 34.4126C40.3513 34.2069 39.7272 33.9795 39.1726 33.7309L38.968 34.1871C39.5462 34.4463 40.1917 34.6811 40.9036 34.892L41.0456 34.4126ZM39.1747 33.7318C38.6242 33.4787 38.1583 33.1933 37.7741 32.8772L37.4564 33.2634C37.8795 33.6114 38.3836 33.9184 38.9659 34.1861L39.1747 33.7318ZM37.7741 32.8772C37.3951 32.5655 37.109 32.2116 36.9111 31.8159L36.4639 32.0395C36.6957 32.5032 37.0281 32.9111 37.4564 33.2634L37.7741 32.8772ZM36.9111 31.8159C36.7161 31.4259 36.6152 30.9736 36.6152 30.4531H36.1152C36.1152 31.0394 36.2292 31.5702 36.4639 32.0395L36.9111 31.8159ZM36.6152 30.4531C36.6152 29.9352 36.7216 29.4618 36.9319 29.0292L36.4822 28.8106C36.2368 29.3155 36.1152 29.8643 36.1152 30.4531H36.6152ZM36.9319 29.0292C37.1431 28.5947 37.4452 28.2162 37.8416 27.893L37.5256 27.5055C37.0756 27.8724 36.7267 28.3076 36.4822 28.8106L36.9319 29.0292ZM37.8419 27.8927C38.2451 27.5628 38.7282 27.3032 39.2951 27.1163L39.1385 26.6415C38.5205 26.8452 37.9815 27.1325 37.5253 27.5057L37.8419 27.8927ZM39.2951 27.1163C39.8584 26.9306 40.4923 26.8359 41.1992 26.8359V26.3359C40.4478 26.3359 39.7601 26.4366 39.1385 26.6415L39.2951 27.1163ZM41.1992 26.8359C42.2354 26.8359 43.0964 27.0349 43.7931 27.42L44.035 26.9824C43.2474 26.5471 42.2985 26.3359 41.1992 26.3359V26.8359ZM43.7954 27.4212C44.5088 27.8059 45.0432 28.3063 45.4081 28.9207L45.838 28.6653C45.4217 27.9645 44.8167 27.4038 44.0327 26.9811L43.7954 27.4212ZM45.4087 28.9216C45.7765 29.5347 45.959 30.187 45.959 30.8828H46.459C46.459 30.0942 46.2508 29.3533 45.8374 28.6643L45.4087 28.9216ZM46.209 30.6328H44.334V31.1328H46.209V30.6328ZM44.584 30.8828C44.584 30.3124 44.4619 29.7975 44.2107 29.3454L43.7736 29.5882C43.9782 29.9564 44.084 30.3855 44.084 30.8828H44.584ZM44.2115 29.3468C43.9572 28.8818 43.573 28.5223 43.0701 28.2673L42.844 28.7132C43.2655 28.9269 43.5714 29.2184 43.7728 29.5868L44.2115 29.3468ZM43.0726 28.2685C42.5641 28.0036 41.9352 27.8789 41.1992 27.8789V28.3789C41.8825 28.3789 42.4255 28.4951 42.8415 28.7119L43.0726 28.2685ZM41.1992 27.8789C40.5058 27.8789 39.9135 27.9829 39.4341 28.2048L39.644 28.6585C40.037 28.4767 40.5515 28.3789 41.1992 28.3789V27.8789ZM39.4341 28.2048C38.9619 28.4232 38.5953 28.7263 38.3503 29.1198L38.7747 29.3841C38.9594 29.0875 39.2439 28.8437 39.644 28.6585L39.4341 28.2048ZM38.3485 29.1227C38.1143 29.5106 38 29.95 38 30.4336H38.5C38.5 30.0318 38.594 29.6835 38.7765 29.3812L38.3485 29.1227ZM38 30.4336C38 30.7686 38.0695 31.0808 38.2119 31.3657L38.6592 31.1421C38.5542 30.9322 38.5 30.6975 38.5 30.4336H38ZM38.2156 31.3728C38.3656 31.6503 38.5896 31.9001 38.8774 32.1248L39.1851 31.7307C38.9391 31.5387 38.7659 31.3393 38.6555 31.135L38.2156 31.3728ZM38.8797 32.1266C39.1742 32.3509 39.5389 32.5527 39.9692 32.7342L40.1636 32.2736C39.7606 32.1035 39.4352 31.9212 39.1828 31.7289L38.8797 32.1266ZM39.9705 32.7348C40.4056 32.9155 40.9203 33.0879 41.5132 33.2526L41.647 32.7708C41.0679 32.61 40.5736 32.4439 40.1623 32.273L39.9705 32.7348ZM41.5122 33.2523C42.3095 33.4774 42.9921 33.7267 43.5621 33.999L43.7777 33.5479C43.1758 33.2603 42.4652 33.0018 41.648 32.7711L41.5122 33.2523ZM43.5621 33.999C44.1308 34.2707 44.5899 34.5732 44.9449 34.9037L45.2856 34.5377C44.8853 34.1651 44.3809 33.8361 43.7777 33.5479L43.5621 33.999ZM44.9482 34.9067C45.3066 35.2287 45.5668 35.5922 45.7337 35.9975L46.196 35.8072C45.9983 35.3271 45.6921 34.9028 45.2823 34.5347L44.9482 34.9067ZM45.7354 36.0016C45.9086 36.4018 45.998 36.8619 45.998 37.3867H46.498C46.498 36.8047 46.3987 36.2753 46.1943 35.803L45.7354 36.0016ZM45.998 37.3867C45.998 37.9315 45.8881 38.4167 45.6729 38.8472L46.1201 39.0708C46.3736 38.5638 46.498 38.0008 46.498 37.3867H45.998ZM45.6729 38.8472C45.4564 39.2802 45.1464 39.6512 44.7392 39.9612L45.042 40.3591C45.5072 40.005 45.8678 39.5753 46.1201 39.0708L45.6729 38.8472ZM44.7392 39.9612C44.3306 40.2722 43.8347 40.517 43.247 40.692L43.3897 41.1712C44.0259 40.9817 44.5782 40.7121 45.042 40.3591L44.7392 39.9612ZM43.2487 40.6916C42.6696 40.8597 42.0165 40.9453 41.2871 40.9453V41.4453C42.0551 41.4453 42.7562 41.3552 43.3881 41.1717L43.2487 40.6916ZM41.2871 40.9453C40.653 40.9453 40.0283 40.8575 39.4124 40.6815L39.2751 41.1623C39.9352 41.3509 40.6061 41.4453 41.2871 41.4453V40.9453ZM39.4131 40.6817C38.8071 40.5068 38.2561 40.245 37.7586 39.8968L37.4719 40.3064C38.016 40.6873 38.6174 40.9724 39.2744 41.1621L39.4131 40.6817ZM37.7598 39.8976C37.2739 39.5532 36.885 39.1302 36.5908 38.6276L36.1592 38.8802C36.49 39.4453 36.9279 39.9208 37.4707 40.3055L37.7598 39.8976ZM36.5925 38.6307C36.3107 38.133 36.166 37.5516 36.166 36.8789H35.666C35.666 37.6255 35.8273 38.2941 36.1575 38.8771L36.5925 38.6307ZM35.916 37.1289H37.791V36.6289H35.916V37.1289ZM37.541 36.8789C37.541 37.3993 37.6417 37.8618 37.854 38.257L38.2945 38.0204C38.1291 37.7125 38.041 37.335 38.041 36.8789H37.541ZM37.8549 38.2587C38.0624 38.6378 38.3456 38.9532 38.7023 39.2029L38.9891 38.7932C38.6947 38.5872 38.4637 38.3296 38.2935 38.0187L37.8549 38.2587ZM38.7042 39.2042C39.0614 39.4493 39.4623 39.63 39.9046 39.7475L40.0329 39.2642C39.6419 39.1604 39.294 39.0025 38.9872 38.7919L38.7042 39.2042ZM39.909 39.7486C40.3526 39.8578 40.8122 39.9121 41.2871 39.9121V39.4121C40.8506 39.4121 40.4313 39.3622 40.0285 39.2631L39.909 39.7486ZM41.2871 39.9121C41.9663 39.9121 42.5564 39.8182 43.0499 39.6208L42.8642 39.1566C42.4462 39.3238 41.923 39.4121 41.2871 39.4121V39.9121ZM43.0499 39.6208C43.5423 39.4238 43.9304 39.1358 44.1977 38.7497L43.7866 38.4651C43.5852 38.7561 43.2832 38.9889 42.8642 39.1566L43.0499 39.6208ZM44.1959 38.7524C44.4702 38.3668 44.6035 37.9143 44.6035 37.4062H44.1035C44.1035 37.8226 43.9959 38.171 43.7885 38.4625L44.1959 38.7524Z" fill="#F88989"/>
<path d="M88.6914 42H85.0469L85.0703 39.668H88.6914C89.7461 39.668 90.6289 39.4375 91.3398 38.9766C92.0586 38.5156 92.5977 37.8555 92.957 36.9961C93.3242 36.1367 93.5078 35.1133 93.5078 33.9258V33C93.5078 32.0781 93.4023 31.2617 93.1914 30.5508C92.9883 29.8398 92.6836 29.2422 92.2773 28.7578C91.8789 28.2734 91.3867 27.9062 90.8008 27.6562C90.2227 27.4062 89.5547 27.2812 88.7969 27.2812H84.9766V24.9375H88.7969C89.9297 24.9375 90.9648 25.1289 91.9023 25.5117C92.8398 25.8867 93.6484 26.4297 94.3281 27.1406C95.0156 27.8516 95.543 28.7031 95.9102 29.6953C96.2773 30.6875 96.4609 31.7969 96.4609 33.0234V33.9258C96.4609 35.1523 96.2773 36.2617 95.9102 37.2539C95.543 38.2461 95.0156 39.0977 94.3281 39.8086C93.6406 40.5117 92.8203 41.0547 91.8672 41.4375C90.9219 41.8125 89.8633 42 88.6914 42ZM86.6758 24.9375V42H83.7344V24.9375H86.6758ZM104.723 42.2344C103.785 42.2344 102.938 42.082 102.18 41.7773C101.43 41.4648 100.789 41.0312 100.258 40.4766C99.7344 39.9219 99.332 39.2695 99.0508 38.5195C98.7695 37.7695 98.6289 36.9609 98.6289 36.0938V35.625C98.6289 34.6328 98.7734 33.7344 99.0625 32.9297C99.3516 32.125 99.7539 31.4375 100.27 30.8672C100.785 30.2891 101.395 29.8477 102.098 29.543C102.801 29.2383 103.562 29.0859 104.383 29.0859C105.289 29.0859 106.082 29.2383 106.762 29.543C107.441 29.8477 108.004 30.2773 108.449 30.832C108.902 31.3789 109.238 32.0312 109.457 32.7891C109.684 33.5469 109.797 34.3828 109.797 35.2969V36.5039H100V34.4766H107.008V34.2539C106.992 33.7461 106.891 33.2695 106.703 32.8242C106.523 32.3789 106.246 32.0195 105.871 31.7461C105.496 31.4727 104.996 31.3359 104.371 31.3359C103.902 31.3359 103.484 31.4375 103.117 31.6406C102.758 31.8359 102.457 32.1211 102.215 32.4961C101.973 32.8711 101.785 33.3242 101.652 33.8555C101.527 34.3789 101.465 34.9688 101.465 35.625V36.0938C101.465 36.6484 101.539 37.1641 101.688 37.6406C101.844 38.1094 102.07 38.5195 102.367 38.8711C102.664 39.2227 103.023 39.5 103.445 39.7031C103.867 39.8984 104.348 39.9961 104.887 39.9961C105.566 39.9961 106.172 39.8594 106.703 39.5859C107.234 39.3125 107.695 38.9258 108.086 38.4258L109.574 39.8672C109.301 40.2656 108.945 40.6484 108.508 41.0156C108.07 41.375 107.535 41.668 106.902 41.8945C106.277 42.1211 105.551 42.2344 104.723 42.2344ZM115.961 39.7617L119.066 29.3203H121.996L117.59 42H115.762L115.961 39.7617ZM113.582 29.3203L116.746 39.8086L116.898 42H115.07L110.641 29.3203H113.582ZM138.977 37.6055C138.977 37.2539 138.922 36.9414 138.812 36.668C138.711 36.3945 138.527 36.1445 138.262 35.918C137.996 35.6914 137.621 35.4727 137.137 35.2617C136.66 35.043 136.051 34.8203 135.309 34.5938C134.496 34.3438 133.746 34.0664 133.059 33.7617C132.379 33.4492 131.785 33.0898 131.277 32.6836C130.77 32.2695 130.375 31.7969 130.094 31.2656C129.812 30.7266 129.672 30.1055 129.672 29.4023C129.672 28.707 129.816 28.0742 130.105 27.5039C130.402 26.9336 130.82 26.4414 131.359 26.0273C131.906 25.6055 132.551 25.2812 133.293 25.0547C134.035 24.8203 134.855 24.7031 135.754 24.7031C137.02 24.7031 138.109 24.9375 139.023 25.4062C139.945 25.875 140.652 26.5039 141.145 27.293C141.645 28.082 141.895 28.9531 141.895 29.9062H138.977C138.977 29.3438 138.855 28.8477 138.613 28.418C138.379 27.9805 138.02 27.6367 137.535 27.3867C137.059 27.1367 136.453 27.0117 135.719 27.0117C135.023 27.0117 134.445 27.1172 133.984 27.3281C133.523 27.5391 133.18 27.8242 132.953 28.1836C132.727 28.543 132.613 28.9492 132.613 29.4023C132.613 29.7227 132.688 30.0156 132.836 30.2812C132.984 30.5391 133.211 30.7812 133.516 31.0078C133.82 31.2266 134.203 31.4336 134.664 31.6289C135.125 31.8242 135.668 32.0117 136.293 32.1914C137.238 32.4727 138.062 32.7852 138.766 33.1289C139.469 33.4648 140.055 33.8477 140.523 34.2773C140.992 34.707 141.344 35.1953 141.578 35.7422C141.812 36.2812 141.93 36.8945 141.93 37.582C141.93 38.3008 141.785 38.9492 141.496 39.5273C141.207 40.0977 140.793 40.5859 140.254 40.9922C139.723 41.3906 139.082 41.6992 138.332 41.918C137.59 42.1289 136.762 42.2344 135.848 42.2344C135.027 42.2344 134.219 42.125 133.422 41.9062C132.633 41.6875 131.914 41.3555 131.266 40.9102C130.617 40.457 130.102 39.8945 129.719 39.2227C129.336 38.543 129.145 37.75 129.145 36.8438H132.086C132.086 37.3984 132.18 37.8711 132.367 38.2617C132.562 38.6523 132.832 38.9727 133.176 39.2227C133.52 39.4648 133.918 39.6445 134.371 39.7617C134.832 39.8789 135.324 39.9375 135.848 39.9375C136.535 39.9375 137.109 39.8398 137.57 39.6445C138.039 39.4492 138.391 39.1758 138.625 38.8242C138.859 38.4727 138.977 38.0664 138.977 37.6055ZM150.062 29.3203V31.3828H142.914V29.3203H150.062ZM144.977 26.2148H147.801V38.4961C147.801 38.8867 147.855 39.1875 147.965 39.3984C148.082 39.6016 148.242 39.7383 148.445 39.8086C148.648 39.8789 148.887 39.9141 149.16 39.9141C149.355 39.9141 149.543 39.9023 149.723 39.8789C149.902 39.8555 150.047 39.832 150.156 39.8086L150.168 41.9648C149.934 42.0352 149.66 42.0977 149.348 42.1523C149.043 42.207 148.691 42.2344 148.293 42.2344C147.645 42.2344 147.07 42.1211 146.57 41.8945C146.07 41.6602 145.68 41.2812 145.398 40.7578C145.117 40.2344 144.977 39.5391 144.977 38.6719V26.2148ZM151.422 35.8008V35.5312C151.422 34.6172 151.555 33.7695 151.82 32.9883C152.086 32.1992 152.469 31.5156 152.969 30.9375C153.477 30.3516 154.094 29.8984 154.82 29.5781C155.555 29.25 156.383 29.0859 157.305 29.0859C158.234 29.0859 159.062 29.25 159.789 29.5781C160.523 29.8984 161.145 30.3516 161.652 30.9375C162.16 31.5156 162.547 32.1992 162.812 32.9883C163.078 33.7695 163.211 34.6172 163.211 35.5312V35.8008C163.211 36.7148 163.078 37.5625 162.812 38.3438C162.547 39.125 162.16 39.8086 161.652 40.3945C161.145 40.9727 160.527 41.4258 159.801 41.7539C159.074 42.0742 158.25 42.2344 157.328 42.2344C156.398 42.2344 155.566 42.0742 154.832 41.7539C154.105 41.4258 153.488 40.9727 152.98 40.3945C152.473 39.8086 152.086 39.125 151.82 38.3438C151.555 37.5625 151.422 36.7148 151.422 35.8008ZM154.246 35.5312V35.8008C154.246 36.3711 154.305 36.9102 154.422 37.418C154.539 37.9258 154.723 38.3711 154.973 38.7539C155.223 39.1367 155.543 39.4375 155.934 39.6562C156.324 39.875 156.789 39.9844 157.328 39.9844C157.852 39.9844 158.305 39.875 158.688 39.6562C159.078 39.4375 159.398 39.1367 159.648 38.7539C159.898 38.3711 160.082 37.9258 160.199 37.418C160.324 36.9102 160.387 36.3711 160.387 35.8008V35.5312C160.387 34.9688 160.324 34.4375 160.199 33.9375C160.082 33.4297 159.895 32.9805 159.637 32.5898C159.387 32.1992 159.066 31.8945 158.676 31.6758C158.293 31.4492 157.836 31.3359 157.305 31.3359C156.773 31.3359 156.312 31.4492 155.922 31.6758C155.539 31.8945 155.223 32.1992 154.973 32.5898C154.723 32.9805 154.539 33.4297 154.422 33.9375C154.305 34.4375 154.246 34.9688 154.246 35.5312ZM168.414 31.7344V42H165.59V29.3203H168.285L168.414 31.7344ZM172.293 29.2383L172.27 31.8633C172.098 31.832 171.91 31.8086 171.707 31.793C171.512 31.7773 171.316 31.7695 171.121 31.7695C170.637 31.7695 170.211 31.8398 169.844 31.9805C169.477 32.1133 169.168 32.3086 168.918 32.5664C168.676 32.8164 168.488 33.1211 168.355 33.4805C168.223 33.8398 168.145 34.2422 168.121 34.6875L167.477 34.7344C167.477 33.9375 167.555 33.1992 167.711 32.5195C167.867 31.8398 168.102 31.2422 168.414 30.7266C168.734 30.2109 169.133 29.8086 169.609 29.5195C170.094 29.2305 170.652 29.0859 171.285 29.0859C171.457 29.0859 171.641 29.1016 171.836 29.1328C172.039 29.1641 172.191 29.1992 172.293 29.2383ZM179.418 42.2344C178.48 42.2344 177.633 42.082 176.875 41.7773C176.125 41.4648 175.484 41.0312 174.953 40.4766C174.43 39.9219 174.027 39.2695 173.746 38.5195C173.465 37.7695 173.324 36.9609 173.324 36.0938V35.625C173.324 34.6328 173.469 33.7344 173.758 32.9297C174.047 32.125 174.449 31.4375 174.965 30.8672C175.48 30.2891 176.09 29.8477 176.793 29.543C177.496 29.2383 178.258 29.0859 179.078 29.0859C179.984 29.0859 180.777 29.2383 181.457 29.543C182.137 29.8477 182.699 30.2773 183.145 30.832C183.598 31.3789 183.934 32.0312 184.152 32.7891C184.379 33.5469 184.492 34.3828 184.492 35.2969V36.5039H174.695V34.4766H181.703V34.2539C181.688 33.7461 181.586 33.2695 181.398 32.8242C181.219 32.3789 180.941 32.0195 180.566 31.7461C180.191 31.4727 179.691 31.3359 179.066 31.3359C178.598 31.3359 178.18 31.4375 177.812 31.6406C177.453 31.8359 177.152 32.1211 176.91 32.4961C176.668 32.8711 176.48 33.3242 176.348 33.8555C176.223 34.3789 176.16 34.9688 176.16 35.625V36.0938C176.16 36.6484 176.234 37.1641 176.383 37.6406C176.539 38.1094 176.766 38.5195 177.062 38.8711C177.359 39.2227 177.719 39.5 178.141 39.7031C178.562 39.8984 179.043 39.9961 179.582 39.9961C180.262 39.9961 180.867 39.8594 181.398 39.5859C181.93 39.3125 182.391 38.9258 182.781 38.4258L184.27 39.8672C183.996 40.2656 183.641 40.6484 183.203 41.0156C182.766 41.375 182.23 41.668 181.598 41.8945C180.973 42.1211 180.246 42.2344 179.418 42.2344Z" fill="#B83F3F"/>
</svg>
